<svg width="20" height="20" viewBox="0 0 20 20" fill="none" xmlns="http://www.w3.org/2000/svg">
<path d="M18.5263 9.97369C18.5263 5.27927 14.7207 1.47369 10.0263 1.47369C5.3319 1.47369 1.52632 5.27927 1.52632 9.97369C1.52632 14.6681 5.3319 18.4737 10.0263 18.4737C14.7207 18.4737 18.5263 14.6681 18.5263 9.97369Z" stroke="#92A9AF" stroke-width="2"/>
<path d="M14.2853 10.3722C14.4908 10.1666 14.4908 9.83338 14.2853 9.62786L10.9358 6.27838C10.7303 6.07286 10.3971 6.07286 10.1915 6.27838C9.986 6.48396 9.986 6.81717 10.1915 7.0227L13.1688 10L10.1915 12.9773C9.986 13.1829 9.986 13.5161 10.1915 13.7216C10.3971 13.9272 10.7303 13.9272 10.9358 13.7216L14.2853 10.3722ZM6.08705 10.5263H13.9132V9.4737H6.08705V10.5263Z" fill="#92A9AF"/>
</svg>
