<svg width="76" height="76" viewBox="0 0 76 76" fill="none" xmlns="http://www.w3.org/2000/svg">
<path d="M74.5156 13.7305H50.4688V11.7024C50.4688 8.97379 48.2489 6.75391 45.5203 6.75391H28.5502C25.8214 6.75391 23.6016 8.97379 23.6016 11.7024V13.7305H1.48438C0.664703 13.7305 0 14.395 0 15.2148V31.1723C0 31.6899 0.269711 32.1703 0.711758 32.4397C1.34588 32.8262 1.94765 33.1989 2.52344 33.5598V67.7617C2.52344 68.5815 3.18814 69.2461 4.00781 69.2461H37.8516C37.8766 69.2461 37.901 69.2436 37.9258 69.2424C37.9506 69.2436 37.9749 69.2461 38 69.2461H71.8438C72.6634 69.2461 73.3281 68.5815 73.3281 67.7617V33.6527C73.9483 33.2632 74.5998 32.8593 75.2882 32.4397C75.7301 32.1703 76 31.6899 76 31.1723V15.2148C76 14.395 75.3353 13.7305 74.5156 13.7305ZM26.5703 11.7024C26.5703 10.6108 27.4584 9.72266 28.5502 9.72266H45.5203C46.6119 9.72266 47.5 10.6108 47.5 11.7024V13.7305H26.5703V11.7024ZM38 66.2773C37.9749 66.2773 37.9506 66.2799 37.9258 66.2811C37.901 66.2799 37.8766 66.2773 37.8516 66.2773H5.49219V35.4589C6.1983 35.9188 6.86449 36.3574 7.50144 36.7767C14.707 41.5211 17.5769 43.4092 29.325 43.5465C29.9326 45.6966 31.9108 47.2773 34.2527 47.2773H41.5987C43.94 47.2773 45.9178 45.6975 46.526 43.5483C58.3996 43.4254 61.2622 41.5414 68.4975 36.7773C69.0901 36.3871 69.7074 35.9807 70.3592 35.5555V66.2773H38ZM32.1737 41.6087C32.4168 40.6867 33.2555 40.0039 34.2527 40.0039H41.5987C42.7855 40.0039 43.7511 40.9693 43.7511 42.1562C43.7511 43.3432 42.7855 44.3086 41.5987 44.3086H34.2527C33.2193 44.3086 32.3542 43.5762 32.1477 42.6035C32.2115 42.438 32.2479 42.2588 32.2479 42.0708C32.248 41.9093 32.2215 41.7541 32.1737 41.6087ZM73.0312 30.3409C70.5874 31.8468 68.6194 33.1425 66.865 34.2978C59.7862 38.9589 57.4751 40.4795 46.4709 40.5806C45.8045 38.5256 43.8729 37.0352 41.5989 37.0352H34.2528C31.9792 37.0352 30.0481 38.5249 29.3813 40.5791C18.5045 40.4658 16.1816 38.9378 9.1341 34.2974C7.38002 33.1422 5.41188 31.8465 2.96875 30.3411V16.6992H25.0859H48.9844H73.0312V30.3409Z" fill="#64B0C7"/>
<path d="M69.1719 18.9258H63.0859C62.2663 18.9258 61.6016 19.5903 61.6016 20.4102C61.6016 21.23 62.2663 21.8945 63.0859 21.8945H69.1719C69.9915 21.8945 70.6562 21.23 70.6562 20.4102C70.6562 19.5903 69.9915 18.9258 69.1719 18.9258Z" fill="#64B0C7"/>
<path d="M58.8555 21.8203C59.6753 21.8203 60.3398 21.1557 60.3398 20.3359C60.3398 19.5161 59.6753 18.8516 58.8555 18.8516C58.0357 18.8516 57.3711 19.5161 57.3711 20.3359C57.3711 21.1557 58.0357 21.8203 58.8555 21.8203Z" fill="#64B0C7"/>
</svg>
