<svg width="76" height="76" viewBox="0 0 76 76" fill="none" xmlns="http://www.w3.org/2000/svg"><path d="M68.2661 0H18.2936C17.4722 0 16.8063 0.666039 16.8063 1.48734V12.642H7.73393C6.91247 12.642 6.24658 13.308 6.24658 14.1293V74.5127C6.24658 75.334 6.91247 76 7.73393 76H57.7066C58.5281 76 59.1939 75.334 59.1939 74.5127V63.358H68.2663C69.0877 63.358 69.7536 62.692 69.7536 61.8707V1.48734C69.7535 0.666039 69.0876 0 68.2661 0ZM56.2193 73.0255H9.22112V15.6165H43.1311V27.2174C43.1311 28.0388 43.797 28.7047 44.6184 28.7047H56.2193V73.0255ZM46.1058 25.73V17.7779L54.0723 25.73H46.1058ZM66.7789 60.3835H59.1938C59.1938 60.3835 59.1938 27.6634 59.1938 27.6036C59.1938 27.0765 58.904 26.1838 58.5246 25.8044L45.6701 13.0244C45.2908 12.6449 44.7412 12.5045 44.2323 12.6418H19.7808V2.97454H66.7788V60.3835H66.7789Z" fill="#64B0C7"/><path d="M18.8884 67.6711H13.5342C12.7128 67.6711 12.0469 68.3372 12.0469 69.1585C12.0469 69.9798 12.7128 70.6458 13.5342 70.6458H18.8884C19.7098 70.6458 20.3757 69.9798 20.3757 69.1585C20.3756 68.3372 19.7097 67.6711 18.8884 67.6711Z" fill="#64B0C7"/><path d="M23.4989 67.6711H23.3501C22.5287 67.6711 21.8628 68.3372 21.8628 69.1585C21.8628 69.9798 22.5287 70.6458 23.3501 70.6458H23.4989C24.3203 70.6458 24.9862 69.9798 24.9862 69.1585C24.9862 68.3372 24.3203 67.6711 23.4989 67.6711Z" fill="#64B0C7"/></svg>
