<svg width="76" height="76" viewBox="0 0 76 76" fill="none" xmlns="http://www.w3.org/2000/svg">
<path d="M40.2188 44.967C38.651 42.7489 36.133 41.3935 33.4333 41.2909C33.3761 41.2845 33.3182 41.281 33.2594 41.281C29.8253 41.281 26.9877 38.6857 26.6007 35.3539C27.5894 34.6338 28.5017 33.72 29.3103 32.6255C30.9453 30.4118 32.0066 27.6458 32.4001 24.6547C32.5207 24.5236 32.6222 24.371 32.6951 24.1973C33.3874 22.5488 33.7384 20.7888 33.7384 18.9661C33.7384 11.9568 28.4389 6.25439 21.9252 6.25439C20.2406 6.25439 18.6062 6.63707 17.0612 7.39217C16.4837 7.44085 15.9177 7.54476 15.3742 7.7021C9.92867 9.27539 6.85082 15.8598 8.51347 22.3796C8.68076 23.0355 8.89347 23.6806 9.14611 24.2968C9.21498 24.4651 9.31147 24.613 9.42517 24.7421C10.0523 29.3469 12.2318 33.1782 15.2126 35.3456C14.8295 38.6815 11.9897 41.2813 8.55266 41.2813C8.49981 41.2813 8.44756 41.2841 8.39591 41.2891C3.73839 41.4538 0 45.2913 0 49.9882V59.3605C0 60.2349 0.708788 60.9437 1.58323 60.9437H23.4168C24.2911 60.9437 25 60.2349 25 59.3605C25 58.486 24.2911 57.7773 23.4168 57.7773H3.16631V49.988C3.16631 46.9324 5.65204 44.4468 8.70748 44.4468C8.76032 44.4468 8.81257 44.444 8.86423 44.439C10.0047 44.4034 11.0967 44.1739 12.1088 43.7816L19.6044 54.6001C19.9001 55.0269 20.3864 55.2817 20.9058 55.2817C21.4251 55.2817 21.9114 55.027 22.2071 54.6001L29.7029 43.7816C30.7151 44.1739 31.807 44.4034 32.9474 44.439C32.9991 44.444 33.0513 44.4468 33.1042 44.4468C34.901 44.4468 36.5941 45.3244 37.633 46.7944C37.9414 47.2308 38.4304 47.4638 38.9272 47.4638C39.2431 47.4638 39.5621 47.3694 39.8397 47.1733C40.5538 46.6689 40.7233 45.681 40.2188 44.967ZM16.2527 10.7434C16.668 10.6235 17.1072 10.5522 17.5583 10.5319C17.7908 10.5215 18.0176 10.4601 18.2236 10.3519C19.4002 9.73376 20.6452 9.42026 21.9246 9.42026C26.5959 9.42026 30.4114 13.5311 30.5643 18.6474C29.6122 17.9275 28.4278 17.4996 27.145 17.4996H18.8653C18.453 17.4996 18.0614 17.3701 17.7335 17.1253C17.4528 16.9159 17.2361 16.6348 17.1065 16.3116C16.8074 15.5673 16.0674 15.1024 15.2684 15.1529C14.4645 15.2044 13.788 15.7631 13.5854 16.5424C13.1815 18.094 12.4275 19.5391 11.4022 20.7662C10.5811 16.1756 12.6488 11.7847 16.2527 10.7434ZM12.5398 24.1515C13.9227 22.8838 15.0417 21.3475 15.8231 19.6509C15.8285 19.6549 15.8339 19.6589 15.8394 19.6629C16.7189 20.3193 17.7651 20.666 18.8652 20.666H27.1449C28.1394 20.666 28.9984 21.2479 29.4062 22.0876C29.3956 25.3765 28.4585 28.4487 26.7631 30.7437C25.1643 32.9079 23.0841 34.0999 20.9055 34.0999C18.8892 34.0999 16.9263 33.0583 15.3782 31.1672C13.8764 29.3327 12.8826 26.8633 12.5398 24.1515ZM20.9056 50.9186L14.8468 42.1738C16.4722 40.8251 17.6571 38.9652 18.158 36.8437C19.0402 37.1198 19.9602 37.2665 20.9055 37.2665C21.8457 37.2665 22.7664 37.1238 23.6545 36.8483C24.1561 38.9677 25.3405 40.8259 26.9647 42.1737L20.9056 50.9186Z" fill="#64B0C7"/>
<path d="M67.6043 50.0909C67.5527 50.0859 67.5004 50.083 67.4476 50.083C64.0087 50.083 61.1679 47.4808 60.787 44.1421C62.7259 42.7302 64.3246 40.6132 65.3784 38.0385C65.5292 38.5319 65.9153 38.9304 66.4232 39.0878C66.5776 39.1356 66.7355 39.1589 66.8918 39.1589C67.3716 39.1589 67.8359 38.9403 68.1412 38.5483C70.3501 35.7113 71.4983 32.0191 71.3748 28.1516C71.2534 24.3575 69.9196 20.7958 67.6189 18.1227C65.2633 15.3858 62.1536 13.8627 58.8593 13.8312C58.6846 13.8241 58.2501 13.8391 58.1799 13.8434C56.4874 13.0757 54.699 12.7171 52.8572 12.7756C49.0535 12.8971 45.5547 14.793 43.0056 18.1138C40.5285 21.341 39.242 25.5502 39.3831 29.9665C39.407 30.7148 39.4661 31.4038 39.5617 32.0599C39.8195 33.942 40.338 35.7444 41.1026 37.4172C41.3459 37.9496 41.8632 38.3044 42.4475 38.3394C43.0298 38.3746 43.5876 38.0844 43.8931 37.5849C44.0205 37.3767 44.1842 37.117 44.3648 36.8626C45.0707 39.0068 46.1496 40.9332 47.5196 42.4541C48.104 43.1029 48.7351 43.6673 49.3998 44.1487C49.016 47.4839 46.1765 50.0827 42.74 50.0827C42.6872 50.0827 42.635 50.0856 42.5833 50.0906C37.9262 50.2557 34.188 54.0935 34.188 58.7901V68.1624C34.188 69.0368 34.8969 69.7456 35.7712 69.7456H74.4163C75.2905 69.7456 75.9995 69.0368 75.9995 68.1624V58.7901C75.9998 54.0938 72.2614 50.2561 67.6043 50.0909ZM43.0633 33.4912C42.9072 32.8814 42.7849 32.256 42.6971 31.617C42.617 31.0666 42.5683 30.4936 42.5483 29.8656C42.4304 26.1789 43.4849 22.69 45.5176 20.042C47.4782 17.4877 50.1206 16.0312 52.9585 15.9405C53.0533 15.9374 55.094 15.8225 57.1772 16.8723C57.4101 16.9895 57.6785 17.044 57.9399 17.0366C57.9699 17.0357 58.7825 16.9973 58.8062 16.9976C61.1841 17.0133 63.4614 18.1466 65.2191 20.1885C67.0495 22.3153 68.1117 25.1793 68.2099 28.253C68.2632 29.9224 68.0287 31.5453 67.532 33.0384C67.3824 32.6397 67.2156 32.2471 67.0319 31.861C65.5033 28.6088 62.9302 26.0896 59.7864 24.7675C59.3882 24.6001 58.939 24.6026 58.5428 24.7745C58.1465 24.9462 57.8377 25.2725 57.688 25.6777C57.4772 26.2471 57.2219 26.8018 56.9286 27.3263C56.0997 28.8086 54.4286 29.6904 52.5703 29.6254C52.2914 29.6159 52.0083 29.6155 51.7293 29.6244C50.3602 29.6682 49.0252 29.9291 47.7541 30.4025C46.4986 30.8763 44.3887 32.0651 43.0633 33.4912ZM46.9582 34.3528C47.5585 33.9507 48.1972 33.6196 48.8661 33.3668C49.8077 33.0162 50.8051 32.8217 51.8303 32.7889C52.0396 32.7821 52.2516 32.7824 52.4606 32.7897C55.5175 32.8943 58.2819 31.3936 59.6922 28.8715C59.7789 28.7164 59.8632 28.5589 59.9447 28.3999C61.3887 29.2895 62.6229 30.5434 63.5509 32.0651C63.5429 32.112 63.5361 32.1591 63.5322 32.2075C63.2894 35.2114 62.2532 37.9682 60.6143 39.97C59.0662 41.8612 57.1033 42.9027 55.0871 42.9027C51.3598 42.9024 48.044 39.3593 46.9582 34.3528ZM52.3469 45.6433C53.238 45.9217 54.1569 46.0687 55.0871 46.0687C56.0347 46.0687 56.9569 45.9212 57.8413 45.6436C58.4772 48.3396 60.2206 50.6112 62.5643 51.9514C61.6501 55.2549 58.6118 57.6303 55.0943 57.6303C51.5765 57.6303 48.5384 55.2547 47.6244 51.9511C49.9678 50.6112 51.7111 48.3395 52.3469 45.6433ZM72.8335 66.5796H37.3547V58.7904C37.3547 55.7351 39.8405 53.2492 42.8959 53.2492C42.9488 53.2492 43.001 53.2464 43.0527 53.2413C43.5979 53.2243 44.1324 53.1643 44.6521 53.0619C46.0273 57.5767 50.2352 60.7969 55.0942 60.7969C59.9531 60.7969 64.1609 57.5767 65.5364 53.062C66.056 53.1644 66.5905 53.2244 67.1356 53.2413C67.1872 53.2464 67.2395 53.2492 67.2923 53.2492C70.3477 53.2492 72.8335 55.7349 72.8335 58.7904V66.5796Z" fill="#64B0C7"/>
<ellipse cx="28.5" cy="59.5" rx="1.5" ry="1.5" fill="#64B0C7"/>
</svg>
