<svg width="76" height="76" viewBox="0 0 76 76" fill="none" xmlns="http://www.w3.org/2000/svg">
<path d="M39.1875 74.8125H74.8125V46.3125H39.1875V74.8125ZM53.4375 48.6875H60.5625V51.0625H53.4375V48.6875ZM41.5625 48.6875H51.0625V53.4375H62.9375V48.6875H72.4375V72.4375H41.5625V48.6875Z" fill="#64B0C7"/>
<path d="M67.6875 67.6875H70.0625V70.0625H67.6875V67.6875Z" fill="#64B0C7"/>
<path d="M62.9375 67.6875H65.3125V70.0625H62.9375V67.6875Z" fill="#64B0C7"/>
<path d="M58.1875 67.6875H60.5625V70.0625H58.1875V67.6875Z" fill="#64B0C7"/>
<path d="M72.4375 24.9375H70.0625V1.1875H39.1875V24.9375H36.8125V1.1875H5.9375V24.9375H3.5625C2.25269 24.9375 1.1875 26.0027 1.1875 27.3125V29.6875C1.1875 30.9973 2.25269 32.0625 3.5625 32.0625H9.81231C9.61519 32.8237 9.5 33.6158 9.5 34.4375C9.5 37.7387 11.1946 40.6493 13.7572 42.3522C6.48612 44.5966 1.1875 51.3772 1.1875 59.375C1.1875 61.8034 2.65644 63.8899 4.75 64.809V74.8125H36.8125V59.375C36.8125 51.3772 31.5139 44.5966 24.2428 42.3522C26.8054 40.6493 28.5 37.7387 28.5 34.4375C28.5 33.6158 28.3848 32.8237 28.1877 32.0625H72.4375C73.7473 32.0625 74.8125 30.9973 74.8125 29.6875V27.3125C74.8125 26.0027 73.7473 24.9375 72.4375 24.9375ZM51.0625 3.5625H58.1875V5.9375H51.0625V3.5625ZM41.5625 3.5625H48.6875V8.3125H60.5625V3.5625H67.6875V24.9375H60.5625V20.1875H48.6875V24.9375H41.5625V3.5625ZM58.1875 24.9375H51.0625V22.5625H58.1875V24.9375ZM17.8125 3.5625H24.9375V5.9375H17.8125V3.5625ZM8.3125 3.5625H15.4375V8.3125H27.3125V3.5625H34.4375V24.9375H27.3125V20.1875H15.4375V24.9375H8.3125V3.5625ZM17.8125 24.9375V22.5625H24.9375V24.9375H17.8125ZM3.5625 29.6875V27.3125H12.7371C11.9652 27.9918 11.305 28.7933 10.7849 29.6875H3.5625ZM7.125 65.3125H11.875V72.4375H7.125V65.3125ZM18.4062 57H14.25V51.0625H22.5625V57H28.5V72.4375H14.25V65.3125H18.4062C20.6981 65.3125 22.5625 63.4481 22.5625 61.1562C22.5625 58.8644 20.6981 57 18.4062 57ZM24.9375 52.7416L26.8209 54.625H24.9375V52.7416ZM34.4375 59.375V72.4375H30.875V55.3209L24.2416 48.6875H11.875V57H8.3125V59.375H18.4062C19.3883 59.375 20.1875 60.1742 20.1875 61.1562C20.1875 62.1383 19.3883 62.9375 18.4062 62.9375H7.125C5.16087 62.9375 3.5625 61.3391 3.5625 59.375C3.5625 50.863 10.488 43.9375 19 43.9375C27.512 43.9375 34.4375 50.863 34.4375 59.375ZM19 41.5625C15.0706 41.5625 11.875 38.3669 11.875 34.4375C11.875 30.5081 15.0706 27.3125 19 27.3125C22.9294 27.3125 26.125 30.5081 26.125 34.4375C26.125 38.3669 22.9294 41.5625 19 41.5625ZM72.4375 29.6875H27.2151C26.6962 28.7933 26.0348 27.9918 25.2629 27.3125H72.4375V29.6875Z" fill="#64B0C7"/>
<path d="M58.1875 62.9375H70.0625V65.3125H58.1875V62.9375Z" fill="#64B0C7"/>
</svg>
