<svg width="24" height="24" viewBox="0 0 24 24" fill="none" xmlns="http://www.w3.org/2000/svg">
<g clip-path="url(#clip0)">
<path d="M23.2015 5.49814C22.7224 4.99624 22.0608 4.69966 21.308 4.69966H17.5209V4.65404C17.5209 4.08369 17.2928 3.53616 16.9049 3.17115C16.5171 2.78331 15.9924 2.55518 15.4221 2.55518H8.57795C7.98479 2.55518 7.46008 2.78331 7.07224 3.17115C6.68441 3.55898 6.45627 4.08369 6.45627 4.65404V4.69966H2.69202C1.93916 4.69966 1.27757 4.99624 0.798479 5.49814C0.319392 5.97723 0 6.66164 0 7.39168V18.7529C0 19.5057 0.296578 20.1673 0.798479 20.6464C1.27757 21.1255 1.96198 21.4449 2.69202 21.4449H21.308C22.0608 21.4449 22.7224 21.1483 23.2015 20.6464C23.6806 20.1673 24 19.4829 24 18.7529V7.39168C24 6.63883 23.7034 5.97723 23.2015 5.49814ZM22.8137 18.7529H22.7909C22.7909 19.1635 22.6312 19.5286 22.3574 19.8023C22.0837 20.0761 21.7186 20.2358 21.308 20.2358H2.69202C2.28137 20.2358 1.91635 20.0761 1.64259 19.8023C1.36882 19.5286 1.20913 19.1635 1.20913 18.7529V7.39168C1.20913 6.98103 1.36882 6.61601 1.64259 6.34225C1.91635 6.06848 2.28137 5.90879 2.69202 5.90879H7.09506C7.43726 5.90879 7.71103 5.63502 7.71103 5.29282V4.63122C7.71103 4.38027 7.80228 4.15213 7.96198 3.99244C8.12167 3.83274 8.34981 3.74149 8.60076 3.74149H15.4221C15.673 3.74149 15.9011 3.83274 16.0608 3.99244C16.2205 4.15213 16.3118 4.38027 16.3118 4.63122V5.29282C16.3118 5.63502 16.5856 5.90879 16.9278 5.90879H21.3308C21.7414 5.90879 22.1065 6.06848 22.3802 6.34225C22.654 6.61601 22.8137 6.98103 22.8137 7.39168V18.7529Z" fill="#6D0D9A"/>
<path d="M11.9999 7.46008C10.4485 7.46008 9.03408 8.09887 8.03028 9.10267C7.00367 10.1293 6.3877 11.5209 6.3877 13.0723C6.3877 14.6236 7.02648 16.038 8.03028 17.0418C9.0569 18.0685 10.4485 18.6844 11.9999 18.6844C13.5512 18.6844 14.9656 18.0456 15.9694 17.0418C16.9961 16.0152 17.612 14.6236 17.612 13.0723C17.612 11.5209 16.9733 10.1065 15.9694 9.10267C14.9656 8.09887 13.5512 7.46008 11.9999 7.46008ZM15.1025 16.1977C14.304 16.9734 13.209 17.4753 11.9999 17.4753C10.7907 17.4753 9.69568 16.9734 8.8972 16.1977C8.09872 15.3993 7.61964 14.3042 7.61964 13.0951C7.61964 11.8859 8.12154 10.7909 8.8972 9.9924C9.69568 9.19392 10.7907 8.71484 11.9999 8.71484C13.209 8.71484 14.304 9.21674 15.1025 9.9924C15.901 10.7909 16.3801 11.8859 16.3801 13.0951C16.4029 14.3042 15.901 15.3993 15.1025 16.1977Z" fill="#6D0D9A"/>
<path d="M20.1218 9.673C20.7392 9.673 21.2396 9.17251 21.2396 8.55513C21.2396 7.93774 20.7392 7.43726 20.1218 7.43726C19.5044 7.43726 19.0039 7.93774 19.0039 8.55513C19.0039 9.17251 19.5044 9.673 20.1218 9.673Z" fill="#6D0D9A"/>
</g>
<defs>
<clipPath id="clip0">
<rect width="24" height="24" fill="white"/>
</clipPath>
</defs>
</svg>
