<svg width="16" height="16" viewBox="0 0 16 16" fill="none" xmlns="http://www.w3.org/2000/svg">
<g clip-path="url(#clip0)">
<path d="M1 14.4998V1.49977C1 1.22361 1.22385 0.999765 1.5 0.999765H9V2.99976C9 3.55205 9.44773 3.99976 10 3.99976H12V5.49976H13V3.49976C13.0008 3.36686 12.9486 3.23911 12.855 3.14476L9.855 0.144764C9.76067 0.05117 9.63293 -0.000986161 9.5 -0.000236163H1.5C0.67156 -0.000236163 0 0.671359 0 1.49977V14.4998C0 15.3282 0.67156 15.9998 1.5 15.9998H5V14.9998H1.5C1.22387 14.9998 1 14.7759 1 14.4998Z" fill="#009FD1"/>
<path d="M9.5 8C8.39547 8 7.5 8.89547 7.5 10V11C7.5 12.1045 8.39547 13 9.5 13C10.6045 13 11.5 12.1045 11.5 11V10C11.5 8.89547 10.6045 8 9.5 8ZM10.5 11C10.5 11.5523 10.0523 12 9.5 12C8.94773 12 8.5 11.5523 8.5 11V10C8.5 9.44773 8.94773 9 9.5 9C10.0523 9 10.5 9.44773 10.5 10V11Z" fill="#009FD1"/>
<path d="M14 12C13.4477 12 13 11.5523 13 11V10C13 9.44773 13.4477 9 14 9C14.5523 9 15 9.44773 15 10H16C16 8.89547 15.1045 8 14 8C12.8955 8 12 8.89547 12 10V11C12 12.1045 12.8955 13 14 13C15.1045 13 16 12.1045 16 11H15C15 11.5523 14.5523 12 14 12Z" fill="#009FD1"/>
<path fill-rule="evenodd" clip-rule="evenodd" d="M3.83334 13C3.5572 13 3.33334 12.7761 3.33334 12.5V8.5C3.33334 8.22387 3.5572 8 3.83334 8C4.10948 8 4.33334 8.22387 4.33334 8.5V12.5C4.33334 12.7761 4.10948 13 3.83334 13Z" fill="#009FD1"/>
<path fill-rule="evenodd" clip-rule="evenodd" d="M7 12.5C7 12.7761 6.77614 13 6.5 13H3.83334C3.5572 13 3.33334 12.7761 3.33334 12.5C3.33334 12.2239 3.5572 12 3.83334 12H6.5C6.77614 12 7 12.2239 7 12.5Z" fill="#009FD1"/>
<path fill-rule="evenodd" clip-rule="evenodd" d="M15.9088 11.5H14.4876C14.2115 11.5 13.9876 11.2761 13.9876 11C13.9876 10.7239 14.2115 10.5 14.4876 10.5H15.9999C15.9999 10.5 16.0182 10.8086 15.9999 11.069C15.9817 11.3294 15.9088 11.5 15.9088 11.5Z" fill="#009FD1"/>
</g>
<defs>
<clipPath id="clip0">
<rect width="16" height="16" fill="white"/>
</clipPath>
</defs>
</svg>
