<svg width="304" height="46" viewBox="0 0 304 46" fill="none" xmlns="http://www.w3.org/2000/svg">
<path d="M76.936 32.288C75.576 32.288 74.416 32.032 73.456 31.52C72.496 30.992 71.68 30.272 71.008 29.36L72.496 28.112C73.088 28.896 73.744 29.496 74.464 29.912C75.184 30.312 76.032 30.512 77.008 30.512C78.208 30.512 79.12 30.224 79.744 29.648C80.384 29.072 80.704 28.304 80.704 27.344C80.704 26.544 80.464 25.928 79.984 25.496C79.504 25.064 78.712 24.72 77.608 24.464L76.24 24.152C74.704 23.8 73.528 23.272 72.712 22.568C71.912 21.848 71.512 20.84 71.512 19.544C71.512 18.808 71.648 18.152 71.92 17.576C72.192 17 72.568 16.52 73.048 16.136C73.544 15.752 74.128 15.464 74.8 15.272C75.488 15.064 76.24 14.96 77.056 14.96C78.32 14.96 79.4 15.192 80.296 15.656C81.208 16.12 81.976 16.8 82.6 17.696L81.088 18.8C80.624 18.16 80.064 17.656 79.408 17.288C78.752 16.92 77.936 16.736 76.96 16.736C75.888 16.736 75.04 16.968 74.416 17.432C73.808 17.88 73.504 18.56 73.504 19.472C73.504 20.272 73.76 20.88 74.272 21.296C74.8 21.696 75.592 22.016 76.648 22.256L78.016 22.568C79.664 22.936 80.856 23.496 81.592 24.248C82.328 25 82.696 26 82.696 27.248C82.696 28.016 82.56 28.712 82.288 29.336C82.032 29.96 81.656 30.488 81.16 30.92C80.664 31.352 80.056 31.688 79.336 31.928C78.632 32.168 77.832 32.288 76.936 32.288ZM88.7213 32C88.0493 32 87.5373 31.816 87.1853 31.448C86.8493 31.064 86.6813 30.568 86.6813 29.96V21.296H84.6413V19.616H85.7933C86.2093 19.616 86.4893 19.536 86.6333 19.376C86.7933 19.2 86.8733 18.904 86.8733 18.488V16.184H88.6013V19.616H91.3133V21.296H88.6013V30.32H91.1213V32H88.7213ZM103.399 32C102.679 32 102.159 31.808 101.839 31.424C101.535 31.04 101.343 30.56 101.263 29.984H101.143C100.871 30.752 100.423 31.328 99.7994 31.712C99.1754 32.096 98.4314 32.288 97.5674 32.288C96.2554 32.288 95.2314 31.952 94.4954 31.28C93.7754 30.608 93.4154 29.696 93.4154 28.544C93.4154 27.376 93.8394 26.48 94.6874 25.856C95.5514 25.232 96.8874 24.92 98.6954 24.92H101.143V23.696C101.143 22.816 100.903 22.144 100.423 21.68C99.9434 21.216 99.2074 20.984 98.2154 20.984C97.4634 20.984 96.8314 21.152 96.3194 21.488C95.8234 21.824 95.4074 22.272 95.0714 22.832L93.9194 21.752C94.2554 21.08 94.7914 20.512 95.5274 20.048C96.2634 19.568 97.1914 19.328 98.3114 19.328C99.8154 19.328 100.983 19.696 101.815 20.432C102.647 21.168 103.063 22.192 103.063 23.504V30.32H104.479V32H103.399ZM97.8794 30.656C98.3594 30.656 98.7994 30.6 99.1994 30.488C99.5994 30.376 99.9434 30.216 100.231 30.008C100.519 29.8 100.743 29.56 100.903 29.288C101.063 29.016 101.143 28.72 101.143 28.4V26.36H98.5994C97.4954 26.36 96.6874 26.52 96.1754 26.84C95.6794 27.16 95.4314 27.624 95.4314 28.232V28.736C95.4314 29.344 95.6474 29.816 96.0794 30.152C96.5274 30.488 97.1274 30.656 97.8794 30.656ZM109.956 32C109.284 32 108.772 31.816 108.42 31.448C108.084 31.064 107.916 30.568 107.916 29.96V21.296H105.876V19.616H107.028C107.444 19.616 107.724 19.536 107.868 19.376C108.028 19.2 108.108 18.904 108.108 18.488V16.184H109.836V19.616H112.548V21.296H109.836V30.32H112.356V32H109.956ZM116.594 16.712C116.178 16.712 115.874 16.616 115.682 16.424C115.506 16.216 115.418 15.952 115.418 15.632V15.32C115.418 15 115.506 14.744 115.682 14.552C115.874 14.344 116.178 14.24 116.594 14.24C117.01 14.24 117.306 14.344 117.482 14.552C117.674 14.744 117.77 15 117.77 15.32V15.632C117.77 15.952 117.674 16.216 117.482 16.424C117.306 16.616 117.01 16.712 116.594 16.712ZM115.634 19.616H117.554V32H115.634V19.616ZM125.354 32.288C124.202 32.288 123.234 32.072 122.45 31.64C121.682 31.192 121.018 30.6 120.458 29.864L121.826 28.76C122.306 29.368 122.842 29.84 123.434 30.176C124.026 30.496 124.714 30.656 125.498 30.656C126.314 30.656 126.946 30.48 127.394 30.128C127.858 29.776 128.09 29.28 128.09 28.64C128.09 28.16 127.93 27.752 127.61 27.416C127.306 27.064 126.746 26.824 125.93 26.696L124.946 26.552C124.37 26.472 123.842 26.352 123.362 26.192C122.882 26.016 122.458 25.792 122.09 25.52C121.738 25.232 121.458 24.88 121.25 24.464C121.058 24.048 120.962 23.552 120.962 22.976C120.962 22.368 121.074 21.84 121.298 21.392C121.522 20.928 121.826 20.544 122.21 20.24C122.61 19.936 123.082 19.712 123.626 19.568C124.17 19.408 124.754 19.328 125.378 19.328C126.386 19.328 127.226 19.504 127.898 19.856C128.586 20.208 129.186 20.696 129.698 21.32L128.426 22.472C128.154 22.088 127.754 21.744 127.226 21.44C126.698 21.12 126.034 20.96 125.234 20.96C124.434 20.96 123.826 21.136 123.41 21.488C123.01 21.824 122.81 22.288 122.81 22.88C122.81 23.488 123.01 23.928 123.41 24.2C123.826 24.472 124.418 24.672 125.186 24.8L126.146 24.944C127.522 25.152 128.498 25.552 129.074 26.144C129.65 26.72 129.938 27.48 129.938 28.424C129.938 29.624 129.53 30.568 128.714 31.256C127.898 31.944 126.778 32.288 125.354 32.288ZM135.901 32C135.229 32 134.717 31.816 134.365 31.448C134.029 31.064 133.861 30.568 133.861 29.96V21.296H131.821V19.616H132.973C133.389 19.616 133.669 19.536 133.813 19.376C133.973 19.2 134.053 18.904 134.053 18.488V16.184H135.781V19.616H138.493V21.296H135.781V30.32H138.301V32H135.901ZM142.539 16.712C142.123 16.712 141.819 16.616 141.627 16.424C141.451 16.216 141.363 15.952 141.363 15.632V15.32C141.363 15 141.451 14.744 141.627 14.552C141.819 14.344 142.123 14.24 142.539 14.24C142.955 14.24 143.251 14.344 143.427 14.552C143.619 14.744 143.715 15 143.715 15.32V15.632C143.715 15.952 143.619 16.216 143.427 16.424C143.251 16.616 142.955 16.712 142.539 16.712ZM141.579 19.616H143.499V32H141.579V19.616ZM152.187 32.288C151.323 32.288 150.547 32.136 149.859 31.832C149.171 31.528 148.587 31.096 148.107 30.536C147.643 29.976 147.283 29.296 147.027 28.496C146.787 27.696 146.667 26.8 146.667 25.808C146.667 24.816 146.787 23.92 147.027 23.12C147.283 22.32 147.643 21.64 148.107 21.08C148.587 20.52 149.171 20.088 149.859 19.784C150.547 19.48 151.323 19.328 152.187 19.328C153.419 19.328 154.403 19.6 155.139 20.144C155.891 20.672 156.451 21.368 156.819 22.232L155.211 23.048C154.987 22.408 154.619 21.912 154.107 21.56C153.595 21.208 152.955 21.032 152.187 21.032C151.611 21.032 151.107 21.128 150.675 21.32C150.243 21.496 149.883 21.752 149.595 22.088C149.307 22.408 149.091 22.8 148.947 23.264C148.803 23.712 148.731 24.208 148.731 24.752V26.864C148.731 27.952 149.019 28.848 149.595 29.552C150.187 30.24 151.051 30.584 152.187 30.584C153.739 30.584 154.859 29.864 155.547 28.424L156.939 29.36C156.539 30.256 155.939 30.968 155.139 31.496C154.355 32.024 153.371 32.288 152.187 32.288ZM178.569 17.888H178.449L177.033 20.696L173.025 27.992L169.017 20.696L167.601 17.888H167.481V32H165.513V15.248H168.201L173.001 24.272H173.121L177.945 15.248H180.537V32H178.569V17.888ZM193.798 32C193.078 32 192.558 31.808 192.238 31.424C191.934 31.04 191.742 30.56 191.662 29.984H191.542C191.27 30.752 190.822 31.328 190.198 31.712C189.574 32.096 188.83 32.288 187.966 32.288C186.654 32.288 185.63 31.952 184.894 31.28C184.174 30.608 183.814 29.696 183.814 28.544C183.814 27.376 184.238 26.48 185.086 25.856C185.95 25.232 187.286 24.92 189.094 24.92H191.542V23.696C191.542 22.816 191.302 22.144 190.822 21.68C190.342 21.216 189.606 20.984 188.614 20.984C187.862 20.984 187.23 21.152 186.718 21.488C186.222 21.824 185.806 22.272 185.47 22.832L184.318 21.752C184.654 21.08 185.19 20.512 185.926 20.048C186.662 19.568 187.59 19.328 188.71 19.328C190.214 19.328 191.382 19.696 192.214 20.432C193.046 21.168 193.462 22.192 193.462 23.504V30.32H194.878V32H193.798ZM188.278 30.656C188.758 30.656 189.198 30.6 189.598 30.488C189.998 30.376 190.342 30.216 190.63 30.008C190.918 29.8 191.142 29.56 191.302 29.288C191.462 29.016 191.542 28.72 191.542 28.4V26.36H188.998C187.894 26.36 187.086 26.52 186.574 26.84C186.078 27.16 185.83 27.624 185.83 28.232V28.736C185.83 29.344 186.046 29.816 186.478 30.152C186.926 30.488 187.526 30.656 188.278 30.656ZM197.618 32V19.616H199.538V21.632H199.634C199.938 20.928 200.362 20.368 200.906 19.952C201.466 19.536 202.21 19.328 203.138 19.328C204.418 19.328 205.426 19.744 206.162 20.576C206.914 21.392 207.29 22.552 207.29 24.056V32H205.37V24.392C205.37 22.168 204.434 21.056 202.562 21.056C202.178 21.056 201.802 21.104 201.434 21.2C201.082 21.296 200.762 21.44 200.474 21.632C200.186 21.824 199.954 22.072 199.778 22.376C199.618 22.664 199.538 23.008 199.538 23.408V32H197.618ZM220.259 32C219.539 32 219.019 31.808 218.699 31.424C218.395 31.04 218.203 30.56 218.123 29.984H218.003C217.731 30.752 217.283 31.328 216.659 31.712C216.035 32.096 215.291 32.288 214.427 32.288C213.115 32.288 212.091 31.952 211.355 31.28C210.635 30.608 210.275 29.696 210.275 28.544C210.275 27.376 210.699 26.48 211.547 25.856C212.411 25.232 213.747 24.92 215.555 24.92H218.003V23.696C218.003 22.816 217.763 22.144 217.283 21.68C216.803 21.216 216.067 20.984 215.075 20.984C214.323 20.984 213.691 21.152 213.179 21.488C212.683 21.824 212.267 22.272 211.931 22.832L210.779 21.752C211.115 21.08 211.651 20.512 212.387 20.048C213.123 19.568 214.051 19.328 215.171 19.328C216.675 19.328 217.843 19.696 218.675 20.432C219.507 21.168 219.923 22.192 219.923 23.504V30.32H221.339V32H220.259ZM214.739 30.656C215.219 30.656 215.659 30.6 216.059 30.488C216.459 30.376 216.803 30.216 217.091 30.008C217.379 29.8 217.603 29.56 217.763 29.288C217.923 29.016 218.003 28.72 218.003 28.4V26.36H215.459C214.355 26.36 213.547 26.52 213.035 26.84C212.539 27.16 212.291 27.624 212.291 28.232V28.736C212.291 29.344 212.507 29.816 212.939 30.152C213.387 30.488 213.987 30.656 214.739 30.656ZM234.519 33.368C234.519 34.648 234.015 35.584 233.007 36.176C232.015 36.784 230.519 37.088 228.519 37.088C226.583 37.088 225.191 36.824 224.343 36.296C223.495 35.768 223.071 35.016 223.071 34.04C223.071 33.368 223.247 32.84 223.599 32.456C223.951 32.088 224.431 31.816 225.039 31.64V31.376C224.303 31.024 223.935 30.448 223.935 29.648C223.935 29.024 224.135 28.552 224.535 28.232C224.935 27.896 225.447 27.648 226.071 27.488V27.392C225.335 27.04 224.759 26.536 224.343 25.88C223.943 25.224 223.743 24.464 223.743 23.6C223.743 22.976 223.855 22.4 224.079 21.872C224.303 21.344 224.615 20.896 225.015 20.528C225.431 20.144 225.919 19.848 226.479 19.64C227.055 19.432 227.695 19.328 228.399 19.328C229.279 19.328 230.063 19.488 230.751 19.808V19.592C230.751 19.112 230.863 18.72 231.087 18.416C231.311 18.096 231.679 17.936 232.191 17.936H234.039V19.616H231.687V20.408C232.135 20.792 232.479 21.256 232.719 21.8C232.975 22.328 233.103 22.928 233.103 23.6C233.103 24.224 232.991 24.8 232.767 25.328C232.543 25.856 232.223 26.312 231.807 26.696C231.407 27.064 230.919 27.352 230.343 27.56C229.767 27.768 229.127 27.872 228.423 27.872C228.023 27.872 227.623 27.832 227.223 27.752C226.807 27.864 226.431 28.032 226.095 28.256C225.759 28.464 225.591 28.76 225.591 29.144C225.591 29.512 225.767 29.76 226.119 29.888C226.471 30.016 226.927 30.08 227.487 30.08H230.127C231.663 30.08 232.775 30.376 233.463 30.968C234.167 31.544 234.519 32.344 234.519 33.368ZM232.719 33.512C232.719 33.016 232.527 32.616 232.143 32.312C231.775 32.024 231.111 31.88 230.151 31.88H226.023C225.255 32.232 224.871 32.792 224.871 33.56C224.871 34.104 225.071 34.568 225.471 34.952C225.887 35.336 226.583 35.528 227.559 35.528H229.335C230.407 35.528 231.239 35.36 231.831 35.024C232.423 34.688 232.719 34.184 232.719 33.512ZM228.423 26.336C229.239 26.336 229.887 26.144 230.367 25.76C230.847 25.36 231.087 24.752 231.087 23.936V23.264C231.087 22.448 230.847 21.848 230.367 21.464C229.887 21.064 229.239 20.864 228.423 20.864C227.607 20.864 226.959 21.064 226.479 21.464C225.999 21.848 225.759 22.448 225.759 23.264V23.936C225.759 24.752 225.999 25.36 226.479 25.76C226.959 26.144 227.607 26.336 228.423 26.336ZM241.274 32.288C240.426 32.288 239.658 32.136 238.97 31.832C238.298 31.528 237.714 31.096 237.218 30.536C236.738 29.96 236.362 29.28 236.09 28.496C235.834 27.696 235.706 26.8 235.706 25.808C235.706 24.832 235.834 23.944 236.09 23.144C236.362 22.344 236.738 21.664 237.218 21.104C237.714 20.528 238.298 20.088 238.97 19.784C239.658 19.48 240.426 19.328 241.274 19.328C242.106 19.328 242.85 19.48 243.506 19.784C244.162 20.088 244.722 20.512 245.186 21.056C245.65 21.584 246.002 22.216 246.242 22.952C246.498 23.688 246.626 24.496 246.626 25.376V26.288H237.722V26.864C237.722 27.392 237.802 27.888 237.962 28.352C238.138 28.8 238.378 29.192 238.682 29.528C239.002 29.864 239.386 30.128 239.834 30.32C240.298 30.512 240.818 30.608 241.394 30.608C242.178 30.608 242.858 30.424 243.434 30.056C244.026 29.688 244.482 29.16 244.802 28.472L246.17 29.456C245.77 30.304 245.146 30.992 244.298 31.52C243.45 32.032 242.442 32.288 241.274 32.288ZM241.274 20.936C240.746 20.936 240.266 21.032 239.834 21.224C239.402 21.4 239.026 21.656 238.706 21.992C238.402 22.328 238.162 22.728 237.986 23.192C237.81 23.64 237.722 24.136 237.722 24.68V24.848H244.562V24.584C244.562 23.48 244.258 22.6 243.65 21.944C243.058 21.272 242.266 20.936 241.274 20.936ZM249.79 32V19.616H251.71V21.632H251.806C251.95 21.312 252.11 21.016 252.286 20.744C252.478 20.456 252.702 20.208 252.958 20C253.23 19.792 253.542 19.632 253.894 19.52C254.246 19.392 254.662 19.328 255.142 19.328C255.958 19.328 256.71 19.528 257.398 19.928C258.086 20.312 258.598 20.952 258.934 21.848H258.982C259.206 21.176 259.622 20.592 260.23 20.096C260.854 19.584 261.694 19.328 262.75 19.328C264.014 19.328 264.998 19.744 265.702 20.576C266.422 21.392 266.782 22.552 266.782 24.056V32H264.862V24.392C264.862 23.288 264.646 22.456 264.214 21.896C263.782 21.336 263.094 21.056 262.15 21.056C261.766 21.056 261.398 21.104 261.046 21.2C260.71 21.296 260.406 21.44 260.134 21.632C259.862 21.824 259.646 22.072 259.486 22.376C259.326 22.664 259.246 23.008 259.246 23.408V32H257.326V24.392C257.326 23.288 257.11 22.456 256.678 21.896C256.246 21.336 255.574 21.056 254.662 21.056C254.278 21.056 253.91 21.104 253.558 21.2C253.206 21.296 252.894 21.44 252.622 21.632C252.35 21.824 252.126 22.072 251.95 22.376C251.79 22.664 251.71 23.008 251.71 23.408V32H249.79ZM275.399 32.288C274.551 32.288 273.783 32.136 273.095 31.832C272.423 31.528 271.839 31.096 271.343 30.536C270.863 29.96 270.487 29.28 270.215 28.496C269.959 27.696 269.831 26.8 269.831 25.808C269.831 24.832 269.959 23.944 270.215 23.144C270.487 22.344 270.863 21.664 271.343 21.104C271.839 20.528 272.423 20.088 273.095 19.784C273.783 19.48 274.551 19.328 275.399 19.328C276.231 19.328 276.975 19.48 277.631 19.784C278.287 20.088 278.847 20.512 279.311 21.056C279.775 21.584 280.127 22.216 280.367 22.952C280.623 23.688 280.751 24.496 280.751 25.376V26.288H271.847V26.864C271.847 27.392 271.927 27.888 272.087 28.352C272.263 28.8 272.503 29.192 272.807 29.528C273.127 29.864 273.511 30.128 273.959 30.32C274.423 30.512 274.943 30.608 275.519 30.608C276.303 30.608 276.983 30.424 277.559 30.056C278.151 29.688 278.607 29.16 278.927 28.472L280.295 29.456C279.895 30.304 279.271 30.992 278.423 31.52C277.575 32.032 276.567 32.288 275.399 32.288ZM275.399 20.936C274.871 20.936 274.391 21.032 273.959 21.224C273.527 21.4 273.151 21.656 272.831 21.992C272.527 22.328 272.287 22.728 272.111 23.192C271.935 23.64 271.847 24.136 271.847 24.68V24.848H278.687V24.584C278.687 23.48 278.383 22.6 277.775 21.944C277.183 21.272 276.391 20.936 275.399 20.936ZM283.915 32V19.616H285.835V21.632H285.931C286.235 20.928 286.659 20.368 287.203 19.952C287.763 19.536 288.507 19.328 289.435 19.328C290.715 19.328 291.723 19.744 292.459 20.576C293.211 21.392 293.587 22.552 293.587 24.056V32H291.667V24.392C291.667 22.168 290.731 21.056 288.859 21.056C288.475 21.056 288.099 21.104 287.731 21.2C287.379 21.296 287.059 21.44 286.771 21.632C286.483 21.824 286.251 22.072 286.075 22.376C285.915 22.664 285.835 23.008 285.835 23.408V32H283.915ZM300.292 32C299.62 32 299.108 31.816 298.756 31.448C298.42 31.064 298.252 30.568 298.252 29.96V21.296H296.212V19.616H297.364C297.78 19.616 298.06 19.536 298.204 19.376C298.364 19.2 298.444 18.904 298.444 18.488V16.184H300.172V19.616H302.884V21.296H300.172V30.32H302.692V32H300.292Z" fill="black"/>
<path d="M39.766 24.1638H21.8411V6.23898C21.8411 5.51465 21.2617 4.93518 20.5373 4.93518C9.21841 4.93518 0.00488281 14.1487 0.00488281 25.4676C0.00488281 36.7865 9.21841 46.0001 20.5373 46.0001C31.8563 46.0001 41.0698 36.7865 41.0698 25.4676C41.0698 24.7529 40.4807 24.1638 39.766 24.1638ZM20.5373 43.3925C10.6574 43.3925 2.61248 35.3475 2.61248 25.4676C2.61248 16.0223 9.9524 8.25746 19.2335 7.59107V25.4676C19.2335 26.192 19.813 26.7714 20.5373 26.7714H38.4139C37.7475 36.0525 29.9826 43.3925 20.5373 43.3925Z" fill="black"/>
<path d="M45.9952 20.4648C45.9759 15.4814 44.1506 10.6815 40.8572 6.94394C36.9555 2.53034 31.354 0 25.4627 0C24.7384 0 24.1589 0.579467 24.1589 1.3038V20.5324C24.1589 21.2568 24.7384 21.8362 25.4627 21.8362H44.6914C45.4157 21.8362 45.9952 21.2568 45.9952 20.5324C45.9952 20.5131 45.9952 20.4938 45.9952 20.4648ZM26.7665 19.2383V2.66555C31.4216 3.00357 35.7869 5.15725 38.8967 8.68234C41.5043 11.628 43.0496 15.3366 43.3393 19.2383H26.7665Z" fill="#64B0C7"/>
</svg>
