<svg width="16" height="16" viewBox="0 0 16 16" fill="none" xmlns="http://www.w3.org/2000/svg">
<g clip-path="url(#clip0)">
<path d="M1 14.4998V1.49977C1 1.22361 1.22385 0.999765 1.5 0.999765H9V2.99977C9 3.55205 9.44773 3.99977 10 3.99977H12V5.49977H13V3.49977C13.0008 3.36686 12.9486 3.23911 12.855 3.14477L9.855 0.144764C9.76067 0.0511701 9.63293 -0.000986161 9.5 -0.000236163H1.5C0.67156 -0.000236163 0 0.671359 0 1.49977V14.4998C0 15.3282 0.67156 15.9998 1.5 15.9998H5V14.9998H1.5C1.22387 14.9998 1 14.7759 1 14.4998Z" fill="#00A42E"/>
<path d="M6.555 8.275L6 9.38L5.445 8.275C5.36028 8.10687 5.18828 8.00053 5 8H4V9H4.69L5.44 10.5L4.69 12H4V13H5C5.18828 12.9995 5.36028 12.8931 5.445 12.725L6 11.62L6.555 12.725C6.63972 12.8931 6.81173 12.9995 7 13H8V12H7.31L6.56 10.5L7.31 9H8V8H7C6.81173 8.0006 6.63972 8.10687 6.555 8.275Z" fill="#00A42E"/>
<path d="M14.5 10H13.5C13.2239 10 13 9.77613 13 9.5C13 9.22387 13.2239 9 13.5 9H14.5C14.7761 9 15 9.22387 15 9.5H16C16 8.67153 15.3285 8 14.5 8H13.5C12.6715 8 12 8.67153 12 9.5C12 10.3285 12.6715 11 13.5 11H14.5C14.7761 11 15 11.2239 15 11.5C15 11.7761 14.7761 12 14.5 12H13.5C13.2239 12 13 11.7761 13 11.5H12C12 12.3285 12.6715 13 13.5 13H14.5C15.3285 13 16 12.3285 16 11.5C16 10.6716 15.3285 10 14.5 10Z" fill="#00A42E"/>
<path d="M9.5 8H8.5V12.5C8.5 12.7761 8.72387 13 9 13H11.5V12H9.5V8Z" fill="#00A42E"/>
</g>
<defs>
<clipPath id="clip0">
<rect width="16" height="16" fill="white"/>
</clipPath>
</defs>
</svg>
