<svg width="16" height="16" viewBox="0 0 16 16" fill="none" xmlns="http://www.w3.org/2000/svg">
<g clip-path="url(#clip0)">
<path d="M13 5.49976V3.49976C13.0008 3.36686 12.9486 3.23911 12.855 3.14476L9.855 0.144764C9.76067 0.05117 9.63293 -0.000986161 9.5 -0.000236163H1.5C0.67156 -0.000236163 0 0.671359 0 1.49977V14.4998C0 15.3282 0.67156 15.9998 1.5 15.9998H5V14.9998H1.5C1.22385 14.9998 1 14.7759 1 14.4998V1.49977C1 1.22361 1.22385 0.999765 1.5 0.999765H9V2.99976C9 3.55205 9.44773 3.99976 10 3.99976H12V5.49976H13Z" fill="#9E0202"/>
<path d="M15 8H13C12.7239 8 12.5 8.22387 12.5 8.5V13H13.5V11.5H15C15.5523 11.5 16 11.0523 16 10.5V9C16 8.44773 15.5523 8 15 8ZM15 10.5H13.5V9H15V10.5Z" fill="#9E0202"/>
<path d="M12 8H11V13H12V8Z" fill="#9E0202"/>
<path d="M10.266 8.076C10.1863 8.02613 10.094 7.9998 10 8H7V9H9.1L7.1 12.235C6.95333 12.4689 7.02413 12.7775 7.25807 12.9242C7.33087 12.9699 7.4142 12.9959 7.5 13H10.5V12H8.4L10.425 8.765C10.5714 8.53087 10.5002 8.2224 10.266 8.076Z" fill="#9E0202"/>
</g>
<defs>
<clipPath id="clip0">
<rect width="16" height="16" fill="white"/>
</clipPath>
</defs>
</svg>
